<svg width="20" height="20" viewBox="0 0 300 300" fill="none" xmlns="http://www.w3.org/2000/svg">
    <path d="M300 274.906C300 288.764 288.75 300 274.875 300H0L39.375 250.187H274.875C288.75 250.187 300 261.423 300 275.281V274.906ZM105.375 167.416L66 217.228H175.875C189.75 217.228 201 205.993 201 192.135C201 178.277 189.75 167.041 175.875 167.041H105.75L105.375 167.416ZM300 25.0936C300 11.236 288.75 0 274.875 0H39.375L0 49.8127H274.875C288.75 49.8127 300 38.5768 300 24.7191V25.0936ZM266.25 107.491C266.25 93.633 255 82.397 241.125 82.397H171L131.625 132.21H241.5C255.375 132.21 266.625 120.974 266.625 107.116L266.25 107.491Z"
          fill="url(#paint0_linear_19495_35536)"/>
    <defs>
        <linearGradient id="paint0_linear_19495_35536" x1="150" y1="299.625" x2="150" y2="0"
                        gradientUnits="userSpaceOnUse">
            <stop stop-color="#E83C78"/>
            <stop offset="0.5" stop-color="#8F52F7"/>
            <stop offset="1" stop-color="#096FF6"/>
        </linearGradient>
    </defs>
</svg>
